<svg width="18" height="16" viewBox="0 0 18 16" fill="none" xmlns="http://www.w3.org/2000/svg">
<path d="M8.80979 0.58541C8.86966 0.401148 9.13034 0.401148 9.19021 0.58541L10.9757 6.08065C11.0025 6.16306 11.0793 6.21885 11.1659 6.21885H16.944C17.1377 6.21885 17.2183 6.46677 17.0615 6.58065L12.387 9.9769C12.3169 10.0278 12.2876 10.1181 12.3143 10.2005L14.0999 15.6957C14.1597 15.88 13.9488 16.0332 13.7921 15.9193L9.11756 12.5231C9.04746 12.4722 8.95254 12.4722 8.88244 12.5231L4.20791 15.9193C4.05117 16.0332 3.84027 15.88 3.90014 15.6957L5.68566 10.2005C5.71243 10.1181 5.6831 10.0278 5.613 9.9769L0.938471 6.58065C0.781729 6.46677 0.862284 6.21885 1.05603 6.21885H6.83407C6.92071 6.21885 6.9975 6.16306 7.02428 6.08065L8.80979 0.58541Z" fill="#FBB616"/>
</svg>
